<svg width="730" height="756" viewBox="0 0 730 756" fill="none" xmlns="http://www.w3.org/2000/svg">
<rect width="730" height="756" fill="white"/>
<circle cx="364.5" cy="369.5" r="312.5" fill="#094074"/>
<path d="M365 85L645.592 365.5H84.4078L365 85Z" fill="white"/>
<path d="M363.997 644.336L84.567 362.679L645.747 364.999L363.997 644.336Z" fill="white"/>
<path d="M173.203 393.188C167.422 395.375 160.859 396.469 153.516 396.469C129.453 396.469 117.422 384.828 117.422 361.547C117.422 339.516 129.453 328.5 153.516 328.5C160.859 328.5 167.422 329.594 173.203 331.781V343.031C167.422 340.531 161.172 339.281 154.453 339.281C138.359 339.281 130.312 346.703 130.312 361.547C130.312 377.641 138.359 385.688 154.453 385.688C161.172 385.688 167.422 384.438 173.203 381.938V393.188ZM184.922 369.656V328.969H197.344V369.656C197.344 380.344 202.812 385.688 213.75 385.688C224.688 385.688 230.156 380.344 230.156 369.656V328.969H242.578V369.656C242.578 387.531 232.969 396.469 213.75 396.469C194.531 396.469 184.922 387.531 184.922 369.656ZM256.641 396V328.969H269.062L304.453 377.812V328.969H316.406V396H303.984L268.594 346.125V396H256.641ZM324.656 328.969H338.016L356.859 361.266L374.578 328.969H387.469L362.812 372.562V396H350.391V372.562L324.656 328.969Z" fill="#219EBC"/>
<path d="M388.266 396V330.375H396.422V396H388.266ZM401.109 396V387.938C407.484 387.938 411.766 386.938 413.953 384.938C415.828 383.188 416.766 380.719 416.766 377.531V348.844C416.766 343.344 413.609 340.031 407.297 338.906C405.547 338.594 403.484 338.438 401.109 338.438V330.375C412.234 330.375 419.516 333.625 422.953 340.125C424.328 342.625 425.016 345.531 425.016 348.844V377.531C425.016 389.281 417.859 395.438 403.547 396C402.734 396 401.922 396 401.109 396ZM432.328 382.125V358.875C432.391 356 433.766 353.156 436.453 350.344C439.703 347.031 443.641 345.344 448.266 345.281V352.688C445.266 352.688 442.922 354 441.234 356.625C440.547 357.75 440.203 358.781 440.203 359.719V366.094H461.203V359.719C461.203 356.906 459.766 354.844 456.891 353.531C455.578 352.906 454.234 352.594 452.859 352.594V345.281C457.172 345.281 461.016 346.812 464.391 349.875C467.203 352.562 468.641 355.531 468.703 358.781V373.688H440.203V382.125C440.203 383.875 441.203 385.5 443.203 387C444.828 388.125 446.547 388.688 448.359 388.688V396C442.672 396 438.203 393.688 434.953 389.062C433.203 386.625 432.328 384.312 432.328 382.125ZM452.859 396V388.594C456.609 388.594 459.422 386.969 461.297 383.719C461.672 383.031 461.953 382.375 462.141 381.75L468.797 384.188C467.672 388.5 465.109 391.75 461.109 393.938C458.547 395.312 455.797 396 452.859 396ZM474.422 382.688L481.828 381.281C481.828 384.094 483.297 386.312 486.234 387.938C487.672 388.625 489.047 389 490.359 389.062V396.469C484.297 396.469 479.766 394.281 476.766 389.906C475.203 387.594 474.422 385.188 474.422 382.688ZM474.891 359.625C474.891 353.938 477.484 349.719 482.672 346.969C485.172 345.656 487.672 345 490.172 345V352.312C487.297 352.312 485.078 353.5 483.516 355.875C482.703 357.062 482.297 358.312 482.297 359.625C482.297 361.625 483.859 363.25 486.984 364.5C489.359 365.5 493.953 366.812 500.766 368.438C505.016 369.312 508.047 371.406 509.859 374.719C510.797 376.469 511.266 378.438 511.266 380.625C511.266 386.625 508.859 391.062 504.047 393.938C501.234 395.625 498.016 396.469 494.391 396.469V389.062C497.266 389.062 499.672 388.062 501.609 386.062C502.984 384.625 503.672 382.938 503.672 381C503.672 378.5 501.203 376.5 496.266 375C495.016 374.625 493.016 374.094 490.266 373.406C487.328 372.719 485.203 372.156 483.891 371.719C479.141 369.844 476.266 367 475.266 363.188C475.016 362.062 474.891 360.875 474.891 359.625ZM494.297 352.406V345C499.672 345 504.016 347 507.328 351C509.391 353.562 510.422 356.25 510.422 359.062L503.016 360.281C503.016 356.844 501.141 354.438 497.391 353.062C496.266 352.625 495.234 352.406 494.297 352.406ZM517.453 338.344C517.453 336.406 518.359 335.031 520.172 334.219C520.797 333.969 521.422 333.844 522.047 333.844C523.922 333.844 525.297 334.719 526.172 336.469C526.422 337.094 526.547 337.719 526.547 338.344C526.547 340.219 525.672 341.594 523.922 342.469C523.297 342.719 522.672 342.844 522.047 342.844C520.109 342.844 518.703 341.969 517.828 340.219C517.578 339.594 517.453 338.969 517.453 338.344ZM518.109 396V346.594H525.984V396H518.109ZM533.203 413.344L535.172 406.031H552.797C556.297 405.906 558.859 404.531 560.484 401.906C560.984 401.031 561.234 400.25 561.234 399.562V392.812C558.672 394.625 556.109 395.594 553.547 395.719V388.5C556.297 388.5 558.484 387.344 560.109 385.031C560.859 383.969 561.234 382.906 561.234 381.844V358.875C561.234 356.5 559.922 354.625 557.297 353.25C556.047 352.625 554.797 352.312 553.547 352.312V344.906C556.359 344.906 558.828 345.781 560.953 347.531C561.078 347.594 561.172 347.656 561.234 347.719V344.906H568.828V399.562C568.828 402.25 567.609 405.031 565.172 407.906C562.109 411.469 558.328 413.281 553.828 413.344H533.203ZM534.141 381.938V358.5C534.203 355.562 535.516 352.688 538.078 349.875C541.141 346.625 544.922 344.969 549.422 344.906V352.312C546.359 352.312 544.047 353.625 542.484 356.25C541.922 357.188 541.641 358.031 541.641 358.781V381.844C541.641 383.719 542.609 385.375 544.547 386.812C545.984 387.812 547.609 388.312 549.422 388.312V395.719C543.672 395.656 539.297 393.219 536.297 388.406C534.859 386.094 534.141 383.938 534.141 381.938ZM576.047 396V358.969C576.047 355.969 577.391 353.031 580.078 350.156C583.391 346.781 587.484 345.094 592.359 345.094V352.875C589.172 352.875 586.734 354.125 585.047 356.625C584.359 357.688 584.016 358.781 584.016 359.906V396H576.047ZM596.484 352.875V345.094C602.297 345.094 606.828 347.438 610.078 352.125C611.828 354.562 612.703 356.844 612.703 358.969V396H604.734V359.906C604.734 357.969 603.766 356.25 601.828 354.75C600.266 353.5 598.484 352.875 596.484 352.875Z" fill="#023047"/>
</svg>
